<svg width="1000" height="1000" viewBox="0 0 1000 1000" fill="none" xmlns="http://www.w3.org/2000/svg">
<g clip-path="url(#clip0)">
<circle cx="500" cy="2" r="500" fill="#C0C8CF" fill-opacity="0.38"/>
<circle cx="500" cy="1000" r="309" fill="#C0C8CF" fill-opacity="0.38"/>
<rect x="60" y="60" width="382" height="60" rx="10" fill="#C0C8CF" fill-opacity="0.62"/>
<path d="M81.386 83.954V96.5H83.024V90.848H87.452V89.516H83.024V85.286H88.478V83.954H81.386ZM90.4203 83.954V91.874C90.4203 95.132 92.5443 96.626 95.1363 96.626C97.7283 96.626 99.8703 95.132 99.8703 91.874V83.954H98.2323V91.892C98.2323 94.196 97.0083 95.186 95.1543 95.186C93.3003 95.186 92.0583 94.196 92.0583 91.892V83.954H90.4203ZM104.241 83.954H102.603V96.5H108.633V95.168H104.241V83.954ZM112.01 83.954H110.372V96.5H116.402V95.168H112.01V83.954ZM132.805 83.936H131.167V93.908L124.579 83.936H122.941V96.5H124.579V86.51L131.167 96.5H132.805V83.936ZM144.021 96.5H145.749L141.231 84.026H139.341L134.805 96.5H136.533L137.541 93.71H143.013L144.021 96.5ZM142.545 92.378H138.009L140.277 86.042L142.545 92.378ZM147.726 84.044V96.5H149.364V87.194L153.522 96.5H154.674L158.814 87.212V96.5H160.452V84.044H158.706L154.098 94.34L149.49 84.044H147.726ZM169.98 85.286V83.936H163.23V96.5H169.98V95.15H164.868V90.83H169.44V89.48H164.868V85.286H169.98Z" fill="black"/>
<rect x="558" y="60" width="382" height="60" rx="10" fill="#C0C8CF" fill-opacity="0.62"/>
<path d="M583.436 89.912H581.024V85.304H583.436C585.308 85.304 586.1 86.168 586.1 87.626C586.1 89.03 585.308 89.912 583.436 89.912ZM587.774 87.626C587.774 85.574 586.388 83.954 583.436 83.954H579.386V96.5H581.024V91.262H583.436C586.55 91.262 587.774 89.534 587.774 87.626ZM596.56 85.286V83.936H589.81V96.5H596.56V95.15H591.448V90.83H596.02V89.48H591.448V85.286H596.56ZM605.752 87.644C605.752 89.048 604.942 90.056 603.088 90.056H600.676V85.304H603.088C604.96 85.304 605.752 86.222 605.752 87.644ZM603.088 83.954H599.038V96.5H600.676V91.37H602.656L605.644 96.5H607.606L604.456 91.244C606.562 90.776 607.444 89.246 607.444 87.644C607.444 85.592 606.04 83.954 603.088 83.954ZM613.968 96.626C616.686 96.626 618.144 94.862 618.144 93.08C618.144 88.436 611.376 90.452 611.376 87.212C611.376 85.862 612.438 85.16 613.788 85.196C615.318 85.214 616.11 86.168 616.218 87.014H618.018C617.82 85.106 616.254 83.792 613.86 83.792C611.376 83.792 609.702 85.196 609.702 87.266C609.702 91.928 616.488 89.768 616.488 93.152C616.488 94.34 615.552 95.24 613.968 95.24C612.222 95.24 611.484 94.196 611.376 93.152H609.63C609.666 95.222 611.448 96.626 613.968 96.626ZM626.242 96.626C629.788 96.626 632.542 93.98 632.542 90.218C632.542 86.456 629.788 83.81 626.242 83.81C622.714 83.81 619.942 86.456 619.942 90.218C619.942 93.98 622.714 96.626 626.242 96.626ZM626.242 95.204C623.596 95.204 621.616 93.278 621.616 90.218C621.616 87.14 623.596 85.232 626.242 85.232C628.888 85.232 630.868 87.14 630.868 90.218C630.868 93.278 628.888 95.204 626.242 95.204ZM644.568 83.936H642.93V93.908L636.342 83.936H634.704V96.5H636.342V86.51L642.93 96.5H644.568V83.936ZM655.785 96.5H657.513L652.995 84.026H651.105L646.569 96.5H648.297L649.305 93.71H654.777L655.785 96.5ZM654.309 92.378H649.773L652.041 86.042L654.309 92.378ZM661.128 83.954H659.49V96.5H665.52V95.168H661.128V83.954ZM676.036 96.626C678.754 96.626 680.212 94.862 680.212 93.08C680.212 88.436 673.444 90.452 673.444 87.212C673.444 85.862 674.506 85.16 675.856 85.196C677.386 85.214 678.178 86.168 678.286 87.014H680.086C679.888 85.106 678.322 83.792 675.928 83.792C673.444 83.792 671.77 85.196 671.77 87.266C671.77 91.928 678.556 89.768 678.556 93.152C678.556 94.34 677.62 95.24 676.036 95.24C674.29 95.24 673.552 94.196 673.444 93.152H671.698C671.734 95.222 673.516 96.626 676.036 96.626ZM689.372 85.286V83.936H682.622V96.5H689.372V95.15H684.26V90.83H688.832V89.48H684.26V85.286H689.372ZM691.239 90.218C691.239 93.98 693.993 96.608 697.503 96.608C700.221 96.608 702.381 95.258 703.317 92.846H701.355C700.671 94.34 699.339 95.186 697.503 95.186C694.875 95.186 692.913 93.278 692.913 90.218C692.913 87.14 694.875 85.232 697.503 85.232C699.339 85.232 700.671 86.078 701.355 87.59H703.317C702.381 85.16 700.221 83.792 697.503 83.792C693.993 83.792 691.239 86.456 691.239 90.218ZM712.469 87.644C712.469 89.048 711.659 90.056 709.805 90.056H707.393V85.304H709.805C711.677 85.304 712.469 86.222 712.469 87.644ZM709.805 83.954H705.755V96.5H707.393V91.37H709.373L712.361 96.5H714.323L711.173 91.244C713.279 90.776 714.161 89.246 714.161 87.644C714.161 85.592 712.757 83.954 709.805 83.954ZM723.456 85.286V83.936H716.706V96.5H723.456V95.15H718.344V90.83H722.916V89.48H718.344V85.286H723.456ZM725.161 83.954V85.286H728.599V96.5H730.237V85.286H733.657V83.954H725.161Z" fill="black"/>
<rect x="309" y="300" width="382" height="60" rx="10" fill="#C0C8CF" fill-opacity="0.38"/>
<path d="M330.35 323.954V331.874C330.35 335.132 332.474 336.626 335.066 336.626C337.658 336.626 339.8 335.132 339.8 331.874V323.954H338.162V331.892C338.162 334.196 336.938 335.186 335.084 335.186C333.23 335.186 331.988 334.196 331.988 331.892V323.954H330.35ZM346.51 336.626C349.228 336.626 350.686 334.862 350.686 333.08C350.686 328.436 343.918 330.452 343.918 327.212C343.918 325.862 344.98 325.16 346.33 325.196C347.86 325.214 348.652 326.168 348.76 327.014H350.56C350.362 325.106 348.796 323.792 346.402 323.792C343.918 323.792 342.244 325.196 342.244 327.266C342.244 331.928 349.03 329.768 349.03 333.152C349.03 334.34 348.094 335.24 346.51 335.24C344.764 335.24 344.026 334.196 343.918 333.152H342.172C342.208 335.222 343.99 336.626 346.51 336.626ZM359.847 325.286V323.936H353.097V336.5H359.847V335.15H354.735V330.83H359.307V329.48H354.735V325.286H359.847ZM369.039 327.644C369.039 329.048 368.229 330.056 366.375 330.056H363.963V325.304H366.375C368.247 325.304 369.039 326.222 369.039 327.644ZM366.375 323.954H362.325V336.5H363.963V331.37H365.943L368.931 336.5H370.893L367.743 331.244C369.849 330.776 370.731 329.246 370.731 327.644C370.731 325.592 369.327 323.954 366.375 323.954ZM384.897 323.954L379.713 329.768V323.954H378.075V336.5H379.713V330.776L384.879 336.5H387.021L381.279 330.236L386.967 323.954H384.897ZM395.601 325.286V323.936H388.851V336.5H395.601V335.15H390.489V330.83H395.061V329.48H390.489V325.286H395.601ZM397.035 323.954L401.139 331.766V336.5H402.777V331.766L406.863 323.954H405.045L401.949 330.308L398.853 323.954H397.035Z" fill="black"/>
<rect x="60" y="566" width="382" height="60" rx="10" fill="#C0C8CF" fill-opacity="0.38"/>
<path d="M85.364 602.626C88.082 602.626 89.54 600.862 89.54 599.08C89.54 594.436 82.772 596.452 82.772 593.212C82.772 591.862 83.834 591.16 85.184 591.196C86.714 591.214 87.506 592.168 87.614 593.014H89.414C89.216 591.106 87.65 589.792 85.256 589.792C82.772 589.792 81.098 591.196 81.098 593.266C81.098 597.928 87.884 595.768 87.884 599.152C87.884 600.34 86.948 601.24 85.364 601.24C83.618 601.24 82.88 600.196 82.772 599.152H81.026C81.062 601.222 82.844 602.626 85.364 602.626ZM91.9505 589.954V602.5H93.5885V589.954H91.9505ZM95.6061 589.954V591.286H99.0441V602.5H100.682V591.286H104.102V589.954H95.6061ZM112.868 591.286V589.936H106.118V602.5H112.868V601.15H107.756V596.83H112.328V595.48H107.756V591.286H112.868ZM126.968 589.954L121.784 595.768V589.954H120.146V602.5H121.784V596.776L126.95 602.5H129.092L123.35 596.236L129.038 589.954H126.968ZM137.671 591.286V589.936H130.921V602.5H137.671V601.15H132.559V596.83H137.131V595.48H132.559V591.286H137.671ZM139.106 589.954L143.21 597.766V602.5H144.848V597.766L148.934 589.954H147.116L144.02 596.308L140.924 589.954H139.106Z" fill="black"/>
<rect x="60.5" y="746.5" width="381" height="59" rx="9.5" fill="#C0C8CF" fill-opacity="0.62"/>
<path d="M85.364 782.626C88.082 782.626 89.54 780.862 89.54 779.08C89.54 774.436 82.772 776.452 82.772 773.212C82.772 771.862 83.834 771.16 85.184 771.196C86.714 771.214 87.506 772.168 87.614 773.014H89.414C89.216 771.106 87.65 769.792 85.256 769.792C82.772 769.792 81.098 771.196 81.098 773.266C81.098 777.928 87.884 775.768 87.884 779.152C87.884 780.34 86.948 781.24 85.364 781.24C83.618 781.24 82.88 780.196 82.772 779.152H81.026C81.062 781.222 82.844 782.626 85.364 782.626ZM91.9505 769.954V782.5H93.5885V769.954H91.9505ZM95.6061 769.954V771.286H99.0441V782.5H100.682V771.286H104.102V769.954H95.6061ZM112.868 771.286V769.936H106.118V782.5H112.868V781.15H107.756V776.83H112.328V775.48H107.756V771.286H112.868ZM124.196 775.912H121.784V771.304H124.196C126.068 771.304 126.86 772.168 126.86 773.626C126.86 775.03 126.068 775.912 124.196 775.912ZM128.534 773.626C128.534 771.574 127.148 769.954 124.196 769.954H120.146V782.5H121.784V777.262H124.196C127.31 777.262 128.534 775.534 128.534 773.626ZM138.994 782.5H140.722L136.204 770.026H134.314L129.778 782.5H131.506L132.514 779.71H137.986L138.994 782.5ZM137.518 778.378H132.982L135.25 772.042L137.518 778.378ZM146.677 782.626C149.395 782.626 150.853 780.862 150.853 779.08C150.853 774.436 144.085 776.452 144.085 773.212C144.085 771.862 145.147 771.16 146.497 771.196C148.027 771.214 148.819 772.168 148.927 773.014H150.727C150.529 771.106 148.963 769.792 146.569 769.792C144.085 769.792 142.411 771.196 142.411 773.266C142.411 777.928 149.197 775.768 149.197 779.152C149.197 780.34 148.261 781.24 146.677 781.24C144.931 781.24 144.193 780.196 144.085 779.152H142.339C142.375 781.222 144.157 782.626 146.677 782.626ZM157.241 782.626C159.959 782.626 161.417 780.862 161.417 779.08C161.417 774.436 154.649 776.452 154.649 773.212C154.649 771.862 155.711 771.16 157.061 771.196C158.591 771.214 159.383 772.168 159.491 773.014H161.291C161.093 771.106 159.527 769.792 157.133 769.792C154.649 769.792 152.975 771.196 152.975 773.266C152.975 777.928 159.761 775.768 159.761 779.152C159.761 780.34 158.825 781.24 157.241 781.24C155.495 781.24 154.757 780.196 154.649 779.152H152.903C152.939 781.222 154.721 782.626 157.241 782.626ZM162.855 769.954L166.365 782.518L168.183 782.5L171.207 772.402L174.123 782.5H175.959L179.595 769.954H177.831L175.077 780.556L172.197 769.954H170.361L167.337 780.592L164.601 769.954H162.855ZM187.076 782.626C190.622 782.626 193.376 779.98 193.376 776.218C193.376 772.456 190.622 769.81 187.076 769.81C183.548 769.81 180.776 772.456 180.776 776.218C180.776 779.98 183.548 782.626 187.076 782.626ZM187.076 781.204C184.43 781.204 182.45 779.278 182.45 776.218C182.45 773.14 184.43 771.232 187.076 771.232C189.722 771.232 191.702 773.14 191.702 776.218C191.702 779.278 189.722 781.204 187.076 781.204ZM202.252 773.644C202.252 775.048 201.442 776.056 199.588 776.056H197.176V771.304H199.588C201.46 771.304 202.252 772.222 202.252 773.644ZM199.588 769.954H195.538V782.5H197.176V777.37H199.156L202.144 782.5H204.106L200.956 777.244C203.062 776.776 203.944 775.246 203.944 773.644C203.944 771.592 202.54 769.954 199.588 769.954ZM210.396 769.954H206.49V782.5H210.396C214.518 782.5 217.056 780.142 217.056 776.254C217.056 772.366 214.518 769.954 210.396 769.954ZM210.396 781.15H208.128V771.286H210.396C213.672 771.286 215.382 773.194 215.382 776.254C215.382 779.314 213.672 781.15 210.396 781.15Z" fill="black"/>
<rect x="60.5" y="746.5" width="381" height="59" rx="9.5" stroke="black"/>
<rect x="309" y="880" width="382" height="60" rx="10" fill="#C0C8CF" fill-opacity="0.62"/>
<path d="M334.364 916.626C337.082 916.626 338.54 914.862 338.54 913.08C338.54 908.436 331.772 910.452 331.772 907.212C331.772 905.862 332.834 905.16 334.184 905.196C335.714 905.214 336.506 906.168 336.614 907.014H338.414C338.216 905.106 336.65 903.792 334.256 903.792C331.772 903.792 330.098 905.196 330.098 907.266C330.098 911.928 336.884 909.768 336.884 913.152C336.884 914.34 335.948 915.24 334.364 915.24C332.618 915.24 331.88 914.196 331.772 913.152H330.026C330.062 915.222 331.844 916.626 334.364 916.626ZM340.95 903.954V916.5H342.588V903.954H340.95ZM344.606 903.954V905.286H348.044V916.5H349.682V905.286H353.102V903.954H344.606ZM361.868 905.286V903.936H355.118V916.5H361.868V915.15H356.756V910.83H361.328V909.48H356.756V905.286H361.868ZM373.052 903.954H369.146V916.5H373.052C377.174 916.5 379.712 914.142 379.712 910.254C379.712 906.366 377.174 903.954 373.052 903.954ZM373.052 915.15H370.784V905.286H373.052C376.328 905.286 378.038 907.194 378.038 910.254C378.038 913.314 376.328 915.15 373.052 915.15ZM387.56 916.626C391.106 916.626 393.86 913.98 393.86 910.218C393.86 906.456 391.106 903.81 387.56 903.81C384.032 903.81 381.26 906.456 381.26 910.218C381.26 913.98 384.032 916.626 387.56 916.626ZM387.56 915.204C384.914 915.204 382.934 913.278 382.934 910.218C382.934 907.14 384.914 905.232 387.56 905.232C390.206 905.232 392.186 907.14 392.186 910.218C392.186 913.278 390.206 915.204 387.56 915.204ZM396.023 904.044V916.5H397.661V907.194L401.819 916.5H402.971L407.111 907.212V916.5H408.749V904.044H407.003L402.395 914.34L397.787 904.044H396.023ZM419.951 916.5H421.679L417.161 904.026H415.271L410.735 916.5H412.463L413.471 913.71H418.943L419.951 916.5ZM418.475 912.378H413.939L416.207 906.042L418.475 912.378ZM423.656 903.954V916.5H425.294V903.954H423.656ZM437.949 903.936H436.311V913.908L429.723 903.936H428.085V916.5H429.723V906.51L436.311 916.5H437.949V903.936Z" fill="black"/>
<path d="M268.114 710.276C271.04 710.276 273.084 708.134 273.084 705.404C273.084 703.29 272.034 701.61 270.158 700.882L270.158 702.408C271.32 702.94 271.978 703.976 271.978 705.404C271.978 707.448 270.494 708.974 268.114 708.974C265.72 708.974 264.236 707.448 264.236 705.404C264.236 703.976 264.894 702.94 266.07 702.408L266.07 700.882C264.18 701.61 263.116 703.29 263.116 705.404C263.116 708.134 265.188 710.276 268.114 710.276ZM263.242 698.985L273 698.985L273 697.711L263.242 697.711L263.242 698.985ZM267.876 692.39L267.876 694.266L264.292 694.266L264.292 692.39C264.292 690.934 264.964 690.318 266.098 690.318C267.19 690.318 267.876 690.934 267.876 692.39ZM266.098 689.016C264.502 689.016 263.242 690.094 263.242 692.39L263.242 695.54L273 695.54L273 694.266L268.926 694.266L268.926 692.39C268.926 689.968 267.582 689.016 266.098 689.016ZM263.242 681.189L267.526 681.189L267.526 686.159L263.242 686.159L263.242 687.433L273 687.433L273 686.159L268.576 686.159L268.576 681.189L273 681.189L273 679.915L263.242 679.915L263.242 681.189ZM264.278 672.489L263.228 672.489L263.228 677.739L273 677.739L273 672.489L271.95 672.489L271.95 676.465L268.59 676.465L268.59 672.909L267.54 672.909L267.54 676.465L264.278 676.465L264.278 672.489ZM266.112 665.34C267.204 665.34 267.988 665.97 267.988 667.412L267.988 669.288L264.292 669.288L264.292 667.412C264.292 665.956 265.006 665.34 266.112 665.34ZM263.242 667.412L263.242 670.562L273 670.562L273 669.288L269.01 669.288L269.01 667.748L273 665.424L273 663.898L268.912 666.348C268.548 664.71 267.358 664.024 266.112 664.024C264.516 664.024 263.242 665.116 263.242 667.412Z" fill="black"/>
<path d="M250.646 736.354C250.842 736.549 251.158 736.549 251.354 736.354L254.536 733.172C254.731 732.976 254.731 732.66 254.536 732.464C254.34 732.269 254.024 732.269 253.828 732.464L251 735.293L248.172 732.464C247.976 732.269 247.66 732.269 247.464 732.464C247.269 732.66 247.269 732.976 247.464 733.172L250.646 736.354ZM250.5 636V736H251.5V636H250.5Z" fill="black"/>
<path d="M51.2944 684.876H49.4184V681.292H51.2944C52.7504 681.292 53.3664 681.964 53.3664 683.098C53.3664 684.19 52.7504 684.876 51.2944 684.876ZM54.6684 683.098C54.6684 681.502 53.5904 680.242 51.2944 680.242H48.1444V690H49.4184V685.926H51.2944C53.7164 685.926 54.6684 684.582 54.6684 683.098ZM62.8038 690H64.1478L60.6338 680.298H59.1638L55.6358 690H56.9798L57.7638 687.83H62.0198L62.8038 690ZM61.6558 686.794H58.1278L59.8918 681.866L61.6558 686.794ZM68.7794 690.098C70.8934 690.098 72.0274 688.726 72.0274 687.34C72.0274 683.728 66.7634 685.296 66.7634 682.776C66.7634 681.726 67.5894 681.18 68.6394 681.208C69.8294 681.222 70.4454 681.964 70.5294 682.622H71.9294C71.7754 681.138 70.5574 680.116 68.6954 680.116C66.7634 680.116 65.4614 681.208 65.4614 682.818C65.4614 686.444 70.7394 684.764 70.7394 687.396C70.7394 688.32 70.0114 689.02 68.7794 689.02C67.4214 689.02 66.8474 688.208 66.7634 687.396H65.4054C65.4334 689.006 66.8194 690.098 68.7794 690.098ZM76.9962 690.098C79.1102 690.098 80.2442 688.726 80.2442 687.34C80.2442 683.728 74.9802 685.296 74.9802 682.776C74.9802 681.726 75.8062 681.18 76.8562 681.208C78.0462 681.222 78.6622 681.964 78.7462 682.622H80.1462C79.9922 681.138 78.7742 680.116 76.9122 680.116C74.9802 680.116 73.6782 681.208 73.6782 682.818C73.6782 686.444 78.9562 684.764 78.9562 687.396C78.9562 688.32 78.2282 689.02 76.9962 689.02C75.6382 689.02 75.0642 688.208 74.9802 687.396H73.6222C73.6502 689.006 75.0362 690.098 76.9962 690.098ZM81.363 680.242L84.093 690.014L85.507 690L87.859 682.146L90.127 690H91.555L94.383 680.242H93.011L90.869 688.488L88.629 680.242H87.201L84.849 688.516L82.721 680.242H81.363ZM100.201 690.098C102.959 690.098 105.101 688.04 105.101 685.114C105.101 682.188 102.959 680.13 100.201 680.13C97.4572 680.13 95.3012 682.188 95.3012 685.114C95.3012 688.04 97.4572 690.098 100.201 690.098ZM100.201 688.992C98.1432 688.992 96.6032 687.494 96.6032 685.114C96.6032 682.72 98.1432 681.236 100.201 681.236C102.259 681.236 103.799 682.72 103.799 685.114C103.799 687.494 102.259 688.992 100.201 688.992ZM112.005 683.112C112.005 684.204 111.375 684.988 109.933 684.988H108.057V681.292H109.933C111.389 681.292 112.005 682.006 112.005 683.112ZM109.933 680.242H106.783V690H108.057V686.01H109.597L111.921 690H113.447L110.997 685.912C112.635 685.548 113.321 684.358 113.321 683.112C113.321 681.516 112.229 680.242 109.933 680.242ZM118.339 680.242H115.301V690H118.339C121.545 690 123.519 688.166 123.519 685.142C123.519 682.118 121.545 680.242 118.339 680.242ZM118.339 688.95H116.575V681.278H118.339C120.887 681.278 122.217 682.762 122.217 685.142C122.217 687.522 120.887 688.95 118.339 688.95ZM128.33 680.242V681.278H131.004V690H132.278V681.278H134.938V680.242H128.33ZM141.756 681.278V680.228H136.506V690H141.756V688.95H137.78V685.59H141.336V684.54H137.78V681.278H141.756ZM143.683 680.312V690H144.957V682.762L148.191 690H149.087L152.307 682.776V690H153.581V680.312H152.223L148.639 688.32L145.055 680.312H143.683ZM158.892 684.876H157.016V681.292H158.892C160.348 681.292 160.964 681.964 160.964 683.098C160.964 684.19 160.348 684.876 158.892 684.876ZM162.266 683.098C162.266 681.502 161.188 680.242 158.892 680.242H155.742V690H157.016V685.926H158.892C161.314 685.926 162.266 684.582 162.266 683.098ZM165.123 680.242H163.849V690H168.539V688.964H165.123V680.242ZM176.444 690H177.788L174.274 680.298H172.804L169.276 690H170.62L171.404 687.83H175.66L176.444 690ZM175.296 686.794H171.768L173.532 681.866L175.296 686.794ZM178.724 680.242V681.278H181.398V690H182.672V681.278H185.332V680.242H178.724ZM192.15 681.278V680.228H186.9V690H192.15V688.95H188.174V685.59H191.73V684.54H188.174V681.278H192.15Z" fill="black"/>
<path d="M241.354 686.354C241.549 686.158 241.549 685.842 241.354 685.646L238.172 682.464C237.976 682.269 237.66 682.269 237.464 682.464C237.269 682.66 237.269 682.976 237.464 683.172L240.293 686L237.464 688.828C237.269 689.024 237.269 689.34 237.464 689.536C237.66 689.731 237.976 689.731 238.172 689.536L241.354 686.354ZM203 686.5L241 686.5L241 685.5L203 685.5L203 686.5Z" fill="black"/>
<line x1="500.5" y1="370" x2="500.5" y2="870" stroke="black"/>
<path d="M451.646 595.646C451.451 595.842 451.451 596.158 451.646 596.354L454.828 599.536C455.024 599.731 455.34 599.731 455.536 599.536C455.731 599.34 455.731 599.024 455.536 598.828L452.707 596L455.536 593.172C455.731 592.976 455.731 592.66 455.536 592.464C455.34 592.269 455.024 592.269 454.828 592.464L451.646 595.646ZM500 595.5L452 595.5L452 596.5L500 596.5L500 595.5Z" fill="black"/>
<path d="M512.242 640.427L516.526 640.427L516.526 645.397L512.242 645.397L512.242 646.671L522 646.671L522 645.397L517.576 645.397L517.576 640.427L522 640.427L522 639.153L512.242 639.153L512.242 640.427ZM512.312 636.978L522 636.978L522 635.704L514.762 635.704L522 632.47L522 631.574L514.776 628.354L522 628.354L522 627.08L512.312 627.08L512.312 628.438L520.32 632.022L512.312 635.606L512.312 636.978ZM522 618.367L522 617.023L512.298 620.537L512.298 622.007L522 625.535L522 624.191L519.83 623.407L519.83 619.151L522 618.367ZM518.794 619.515L518.794 623.043L513.866 621.279L518.794 619.515ZM517.114 615.961C520.04 615.961 522.084 613.819 522.084 611.089C522.084 608.975 521.034 607.295 519.158 606.567L519.158 608.093C520.32 608.625 520.978 609.661 520.978 611.089C520.978 613.133 519.494 614.659 517.114 614.659C514.72 614.659 513.236 613.133 513.236 611.089C513.236 609.661 513.894 608.625 515.07 608.093L515.07 606.567C513.18 607.295 512.116 608.975 512.116 611.089C512.116 613.819 514.188 615.961 517.114 615.961ZM516.33 604.937L517.408 604.937L517.408 599.351L516.33 599.351L516.33 604.937ZM522.098 593.866C522.098 591.752 520.726 590.618 519.34 590.618C515.728 590.618 517.296 595.882 514.776 595.882C513.726 595.882 513.18 595.056 513.208 594.006C513.222 592.816 513.964 592.2 514.622 592.116L514.622 590.716C513.138 590.87 512.116 592.088 512.116 593.95C512.116 595.882 513.208 597.184 514.818 597.184C518.444 597.184 516.764 591.906 519.396 591.906C520.32 591.906 521.02 592.634 521.02 593.866C521.02 595.224 520.208 595.798 519.396 595.882L519.396 597.24C521.006 597.212 522.098 595.826 522.098 593.866ZM512.242 582.499L516.526 582.499L516.526 587.469L512.242 587.469L512.242 588.743L522 588.743L522 587.469L517.576 587.469L517.576 582.499L522 582.499L522 581.225L512.242 581.225L512.242 582.499ZM522 572.498L522 571.154L512.298 574.668L512.298 576.138L522 579.666L522 578.322L519.83 577.538L519.83 573.282L522 572.498ZM518.794 573.646L518.794 577.174L513.866 575.41L518.794 573.646ZM521.09 569.896L522 569.896L522 563.162L520.936 563.162L520.936 568.034L518.976 566.004C517.114 564.086 515.994 563.428 514.734 563.428C513.012 563.428 511.85 564.604 511.85 566.592C511.85 568.398 512.97 569.812 515.196 569.854L515.196 568.622C513.852 568.594 512.942 567.894 512.942 566.606C512.942 565.318 513.684 564.716 514.734 564.716C515.77 564.716 516.666 565.318 518.262 566.97L521.09 569.896ZM511.864 555.032L511.864 561.122L517.576 561.122L517.576 559.918C516.778 559.582 516.246 558.84 516.246 557.818C516.246 556.348 517.086 555.606 518.528 555.606C519.914 555.606 520.95 556.292 520.95 557.832C520.95 559.022 520.32 559.848 519.256 560.086L519.256 561.332C520.894 561.08 522.028 559.862 522.028 557.846C522.028 555.48 520.46 554.388 518.5 554.388C516.932 554.388 515.154 555.172 515.154 557.636C515.154 558.63 515.602 559.526 516.176 559.946L512.984 559.946L512.984 555.032L511.864 555.032ZM522.126 549.279C522.126 547.263 520.698 545.849 518.724 545.849C516.778 545.849 515.434 547.165 515.434 549.125C515.434 549.559 515.504 549.965 515.644 550.329L511.878 547.711L511.878 549.097L515.644 551.673C516.722 552.415 517.702 552.751 518.696 552.751C520.642 552.751 522.126 551.379 522.126 549.279ZM518.71 551.589C517.324 551.589 516.386 550.693 516.386 549.279C516.386 547.865 517.324 547.011 518.724 547.011C520.124 547.011 521.062 547.865 521.062 549.279C521.062 550.693 520.124 551.589 518.71 551.589Z" fill="black"/>
<path d="M558.602 441.114C558.602 444.04 560.744 446.084 563.474 446.084C565.588 446.084 567.268 445.034 567.996 443.158H566.47C565.938 444.32 564.902 444.978 563.474 444.978C561.43 444.978 559.904 443.494 559.904 441.114C559.904 438.72 561.43 437.236 563.474 437.236C564.902 437.236 565.938 437.894 566.47 439.07H567.996C567.268 437.18 565.588 436.116 563.474 436.116C560.744 436.116 558.602 438.188 558.602 441.114ZM574.316 446.098C577.074 446.098 579.216 444.04 579.216 441.114C579.216 438.188 577.074 436.13 574.316 436.13C571.572 436.13 569.416 438.188 569.416 441.114C569.416 444.04 571.572 446.098 574.316 446.098ZM574.316 444.992C572.258 444.992 570.718 443.494 570.718 441.114C570.718 438.72 572.258 437.236 574.316 437.236C576.374 437.236 577.914 438.72 577.914 441.114C577.914 443.494 576.374 444.992 574.316 444.992ZM580.87 436.242V442.402C580.87 444.936 582.522 446.098 584.538 446.098C586.554 446.098 588.22 444.936 588.22 442.402V436.242H586.946V442.416C586.946 444.208 585.994 444.978 584.552 444.978C583.11 444.978 582.144 444.208 582.144 442.416V436.242H580.87ZM598.018 436.228H596.744V443.984L591.62 436.228H590.346V446H591.62V438.23L596.744 446H598.018V436.228ZM599.587 436.242V437.278H602.261V446H603.535V437.278H606.195V436.242H599.587ZM613.014 437.278V436.228H607.764V446H613.014V444.95H609.038V441.59H612.594V440.54H609.038V437.278H613.014ZM620.163 439.112C620.163 440.204 619.533 440.988 618.091 440.988H616.215V437.292H618.091C619.547 437.292 620.163 438.006 620.163 439.112ZM618.091 436.242H614.941V446H616.215V442.01H617.755L620.079 446H621.605L619.155 441.912C620.793 441.548 621.479 440.358 621.479 439.112C621.479 437.516 620.387 436.242 618.091 436.242Z" fill="black"/>
<path d="M509.646 440.646C509.451 440.842 509.451 441.158 509.646 441.354L512.828 444.536C513.024 444.731 513.34 444.731 513.536 444.536C513.731 444.34 513.731 444.024 513.536 443.828L510.707 441L513.536 438.172C513.731 437.976 513.731 437.66 513.536 437.464C513.34 437.269 513.024 437.269 512.828 437.464L509.646 440.646ZM548 440.5H510V441.5H548V440.5Z" fill="black"/>
<path d="M562.228 796.876H560.352V793.292H562.228C563.684 793.292 564.3 793.964 564.3 795.098C564.3 796.19 563.684 796.876 562.228 796.876ZM565.602 795.098C565.602 793.502 564.524 792.242 562.228 792.242H559.078V802H560.352V797.926H562.228C564.65 797.926 565.602 796.582 565.602 795.098ZM567.157 792.242V798.402C567.157 800.936 568.809 802.098 570.825 802.098C572.841 802.098 574.507 800.936 574.507 798.402V792.242H573.233V798.416C573.233 800.208 572.281 800.978 570.839 800.978C569.397 800.978 568.431 800.208 568.431 798.416V792.242H567.157ZM581.855 795.112C581.855 796.204 581.225 796.988 579.783 796.988H577.907V793.292H579.783C581.239 793.292 581.855 794.006 581.855 795.112ZM579.783 792.242H576.633V802H577.907V798.01H579.447L581.771 802H583.297L580.847 797.912C582.485 797.548 583.171 796.358 583.171 795.112C583.171 793.516 582.079 792.242 579.783 792.242ZM588.3 796.876H586.424V793.292H588.3C589.756 793.292 590.372 793.964 590.372 795.098C590.372 796.19 589.756 796.876 588.3 796.876ZM591.674 795.098C591.674 793.502 590.596 792.242 588.3 792.242H585.15V802H586.424V797.926H588.3C590.722 797.926 591.674 796.582 591.674 795.098ZM597.682 802.098C600.44 802.098 602.582 800.04 602.582 797.114C602.582 794.188 600.44 792.13 597.682 792.13C594.938 792.13 592.782 794.188 592.782 797.114C592.782 800.04 594.938 802.098 597.682 802.098ZM597.682 800.992C595.624 800.992 594.084 799.494 594.084 797.114C594.084 794.72 595.624 793.236 597.682 793.236C599.74 793.236 601.28 794.72 601.28 797.114C601.28 799.494 599.74 800.992 597.682 800.992ZM607.358 802.098C609.472 802.098 610.606 800.726 610.606 799.34C610.606 795.728 605.342 797.296 605.342 794.776C605.342 793.726 606.168 793.18 607.218 793.208C608.408 793.222 609.024 793.964 609.108 794.622H610.508C610.354 793.138 609.136 792.116 607.274 792.116C605.342 792.116 604.04 793.208 604.04 794.818C604.04 798.444 609.318 796.764 609.318 799.396C609.318 800.32 608.59 801.02 607.358 801.02C606 801.02 605.426 800.208 605.342 799.396H603.984C604.012 801.006 605.398 802.098 607.358 802.098ZM617.73 793.278V792.228H612.48V802H617.73V800.95H613.754V797.59H617.31V796.54H613.754V793.278H617.73ZM623.391 792.242V802H624.665V792.242H623.391ZM629.874 792.242H626.836V802H629.874C633.08 802 635.054 800.166 635.054 797.142C635.054 794.118 633.08 792.242 629.874 792.242ZM629.874 800.95H628.11V793.278H629.874C632.422 793.278 633.752 794.762 633.752 797.142C633.752 799.522 632.422 800.95 629.874 800.95ZM641.984 793.278V792.228H636.734V802H641.984V800.95H638.008V797.59H641.564V796.54H638.008V793.278H641.984ZM651.584 792.228H650.31V799.984L645.186 792.228H643.912V802H645.186V794.23L650.31 802H651.584V792.228ZM653.154 792.242V793.278H655.828V802H657.102V793.278H659.762V792.242H653.154ZM661.33 792.242V802H662.604V792.242H661.33ZM664.775 792.242V802H666.049V797.604H669.493V796.568H666.049V793.278H670.291V792.242H664.775ZM671.83 792.242V802H673.104V792.242H671.83ZM680.525 793.278V792.228H675.275V802H680.525V800.95H676.549V797.59H680.105V796.54H676.549V793.278H680.525ZM687.675 795.112C687.675 796.204 687.045 796.988 685.603 796.988H683.727V793.292H685.603C687.059 793.292 687.675 794.006 687.675 795.112ZM685.603 792.242H682.453V802H683.727V798.01H685.267L687.591 802H689.117L686.667 797.912C688.305 797.548 688.991 796.358 688.991 795.112C688.991 793.516 687.899 792.242 685.603 792.242Z" fill="black"/>
<path d="M509.646 796.646C509.451 796.842 509.451 797.158 509.646 797.354L512.828 800.536C513.024 800.731 513.34 800.731 513.536 800.536C513.731 800.34 513.731 800.024 513.536 799.828L510.707 797L513.536 794.172C513.731 793.976 513.731 793.66 513.536 793.464C513.34 793.269 513.024 793.269 512.828 793.464L509.646 796.646ZM548 796.5H510V797.5H548V796.5Z" fill="black"/>
<line x1="452" y1="89.5" x2="548" y2="89.5" stroke="black"/>
<path d="M499.646 290.354C499.842 290.549 500.158 290.549 500.354 290.354L503.536 287.172C503.731 286.976 503.731 286.66 503.536 286.464C503.34 286.269 503.024 286.269 502.828 286.464L500 289.293L497.172 286.464C496.976 286.269 496.66 286.269 496.464 286.464C496.269 286.66 496.269 286.976 496.464 287.172L499.646 290.354ZM499.5 90L499.5 290H500.5L500.5 90H499.5Z" fill="black"/>
<path d="M463.658 68.242L459.626 72.764V68.242H458.352V78H459.626V73.548L463.644 78H465.31L460.844 73.128L465.268 68.242H463.658ZM469.771 68.242H466.733V78H469.771C472.977 78 474.951 76.166 474.951 73.142C474.951 70.118 472.977 68.242 469.771 68.242ZM469.771 76.95H468.007V69.278H469.771C472.319 69.278 473.649 70.762 473.649 73.142C473.649 75.522 472.319 76.95 469.771 76.95ZM476.632 68.242V78H477.906V73.604H481.35V72.568H477.906V69.278H482.148V68.242H476.632ZM483.42 72.33V73.408H489.006V72.33H483.42ZM494.491 78.098C496.605 78.098 497.739 76.726 497.739 75.34C497.739 71.728 492.475 73.296 492.475 70.776C492.475 69.726 493.301 69.18 494.351 69.208C495.541 69.222 496.157 69.964 496.241 70.622H497.641C497.487 69.138 496.269 68.116 494.407 68.116C492.475 68.116 491.173 69.208 491.173 70.818C491.173 74.444 496.451 72.764 496.451 75.396C496.451 76.32 495.723 77.02 494.491 77.02C493.133 77.02 492.559 76.208 492.475 75.396H491.117C491.145 77.006 492.531 78.098 494.491 78.098ZM499.138 73.114C499.138 76.04 501.28 78.084 504.01 78.084C506.124 78.084 507.804 77.034 508.532 75.158H507.006C506.474 76.32 505.438 76.978 504.01 76.978C501.966 76.978 500.44 75.494 500.44 73.114C500.44 70.72 501.966 69.236 504.01 69.236C505.438 69.236 506.474 69.894 507.006 71.07H508.532C507.804 69.18 506.124 68.116 504.01 68.116C501.28 68.116 499.138 70.188 499.138 73.114ZM515.651 71.112C515.651 72.204 515.021 72.988 513.579 72.988H511.703V69.292H513.579C515.035 69.292 515.651 70.006 515.651 71.112ZM513.579 68.242H510.429V78H511.703V74.01H513.243L515.567 78H517.093L514.643 73.912C516.281 73.548 516.967 72.358 516.967 71.112C516.967 69.516 515.875 68.242 513.579 68.242ZM518.134 68.242L521.326 74.318V78H522.6V74.318L525.778 68.242H524.364L521.956 73.184L519.548 68.242H518.134ZM530.272 72.876H528.396V69.292H530.272C531.728 69.292 532.344 69.964 532.344 71.098C532.344 72.19 531.728 72.876 530.272 72.876ZM533.646 71.098C533.646 69.502 532.568 68.242 530.272 68.242H527.122V78H528.396V73.926H530.272C532.694 73.926 533.646 72.582 533.646 71.098ZM534.627 68.242V69.278H537.301V78H538.575V69.278H541.235V68.242H534.627Z" fill="black"/>
<path d="M565.63 195H566.974L563.46 185.298H561.99L558.462 195H559.806L560.59 192.83H564.846L565.63 195ZM564.482 191.794H560.954L562.718 186.866L564.482 191.794ZM569.786 185.242H568.512V195H573.202V193.964H569.786V185.242ZM583.473 188.07C582.745 186.194 581.037 185.13 578.979 185.13C576.235 185.13 574.079 187.188 574.079 190.114C574.079 193.04 576.235 195.084 578.979 195.084C581.625 195.084 583.543 193.138 583.767 190.716V189.736H578.517V190.772H582.409C582.213 192.704 580.897 193.936 578.979 193.936C576.921 193.936 575.381 192.452 575.381 190.114C575.381 187.762 576.921 186.278 578.979 186.278C580.351 186.278 581.415 186.936 581.947 188.07H583.473ZM589.875 195.098C592.633 195.098 594.775 193.04 594.775 190.114C594.775 187.188 592.633 185.13 589.875 185.13C587.131 185.13 584.975 187.188 584.975 190.114C584.975 193.04 587.131 195.098 589.875 195.098ZM589.875 193.992C587.817 193.992 586.277 192.494 586.277 190.114C586.277 187.72 587.817 186.236 589.875 186.236C591.933 186.236 593.473 187.72 593.473 190.114C593.473 192.494 591.933 193.992 589.875 193.992ZM601.679 188.112C601.679 189.204 601.049 189.988 599.607 189.988H597.731V186.292H599.607C601.063 186.292 601.679 187.006 601.679 188.112ZM599.607 185.242H596.457V195H597.731V191.01H599.271L601.595 195H603.121L600.671 190.912C602.309 190.548 602.995 189.358 602.995 188.112C602.995 186.516 601.903 185.242 599.607 185.242ZM604.974 185.242V195H606.248V185.242H604.974ZM607.818 185.242V186.278H610.492V195H611.766V186.278H614.426V185.242H607.818ZM622.238 185.242V189.526H617.268V185.242H615.994V195H617.268V190.576H622.238V195H623.512V185.242H622.238ZM625.687 185.312V195H626.961V187.762L630.195 195H631.091L634.311 187.776V195H635.585V185.312H634.227L630.643 193.32L627.059 185.312H625.687ZM641.478 185.242V195H642.752V185.242H641.478ZM647.962 185.242H644.924V195H647.962C651.168 195 653.142 193.166 653.142 190.142C653.142 187.118 651.168 185.242 647.962 185.242ZM647.962 193.95H646.198V186.278H647.962C650.51 186.278 651.84 187.762 651.84 190.142C651.84 192.522 650.51 193.95 647.962 193.95ZM660.072 186.278V185.228H654.822V195H660.072V193.95H656.096V190.59H659.652V189.54H656.096V186.278H660.072ZM669.672 185.228H668.398V192.984L663.274 185.228H662V195H663.274V187.23L668.398 195H669.672V185.228ZM671.242 185.242V186.278H673.916V195H675.19V186.278H677.85V185.242H671.242ZM679.418 185.242V195H680.692V185.242H679.418ZM682.863 185.242V195H684.137V190.604H687.581V189.568H684.137V186.278H688.379V185.242H682.863ZM689.918 185.242V195H691.192V185.242H689.918ZM698.613 186.278V185.228H693.363V195H698.613V193.95H694.637V190.59H698.193V189.54H694.637V186.278H698.613ZM705.763 188.112C705.763 189.204 705.133 189.988 703.691 189.988H701.815V186.292H703.691C705.147 186.292 705.763 187.006 705.763 188.112ZM703.691 185.242H700.541V195H701.815V191.01H703.355L705.679 195H707.205L704.755 190.912C706.393 190.548 707.079 189.358 707.079 188.112C707.079 186.516 705.987 185.242 703.691 185.242Z" fill="black"/>
<path d="M509.646 189.646C509.451 189.842 509.451 190.158 509.646 190.354L512.828 193.536C513.024 193.731 513.34 193.731 513.536 193.536C513.731 193.34 513.731 193.024 513.536 192.828L510.707 190L513.536 187.172C513.731 186.976 513.731 186.66 513.536 186.464C513.34 186.269 513.024 186.269 512.828 186.464L509.646 189.646ZM548 189.5H510V190.5H548V189.5Z" fill="black"/>
<path d="M353.201 994.098C355.315 994.098 356.449 992.726 356.449 991.34C356.449 987.728 351.185 989.296 351.185 986.776C351.185 985.726 352.011 985.18 353.061 985.208C354.251 985.222 354.867 985.964 354.951 986.622H356.351C356.197 985.138 354.979 984.116 353.117 984.116C351.185 984.116 349.883 985.208 349.883 986.818C349.883 990.444 355.161 988.764 355.161 991.396C355.161 992.32 354.433 993.02 353.201 993.02C351.843 993.02 351.269 992.208 351.185 991.396H349.827C349.855 993.006 351.241 994.098 353.201 994.098ZM361.474 988.876H359.598V985.292H361.474C362.93 985.292 363.546 985.964 363.546 987.098C363.546 988.19 362.93 988.876 361.474 988.876ZM364.848 987.098C364.848 985.502 363.77 984.242 361.474 984.242H358.324V994H359.598V989.926H361.474C363.896 989.926 364.848 988.582 364.848 987.098ZM371.682 985.278V984.228H366.432V994H371.682V992.95H367.706V989.59H371.262V988.54H367.706V985.278H371.682ZM373.133 989.114C373.133 992.04 375.275 994.084 378.005 994.084C380.119 994.084 381.799 993.034 382.527 991.158H381.001C380.469 992.32 379.433 992.978 378.005 992.978C375.961 992.978 374.435 991.494 374.435 989.114C374.435 986.72 375.961 985.236 378.005 985.236C379.433 985.236 380.469 985.894 381.001 987.07H382.527C381.799 985.18 380.119 984.116 378.005 984.116C375.275 984.116 373.133 986.188 373.133 989.114ZM383.822 984.242V985.278H386.496V994H387.77V985.278H390.43V984.242H383.822ZM397.22 987.112C397.22 988.204 396.59 988.988 395.148 988.988H393.272V985.292H395.148C396.604 985.292 397.22 986.006 397.22 987.112ZM395.148 984.242H391.998V994H393.272V990.01H394.812L397.136 994H398.662L396.212 989.912C397.85 989.548 398.536 988.358 398.536 987.112C398.536 985.516 397.444 984.242 395.148 984.242ZM405.766 985.278V984.228H400.516V994H405.766V992.95H401.79V989.59H405.346V988.54H401.79V985.278H405.766ZM408.085 994.532V995.708H415.533V994.532H408.085ZM424.681 984.242L421.615 992.656L418.549 984.242H417.191L420.873 994H422.343L426.025 984.242H424.681ZM430.516 994.07C432.644 994.07 433.946 992.838 433.946 990.906C433.946 988.932 432.728 987.826 430.684 987.784L433.484 984.844V983.864H427.66V984.928H431.958L429.158 987.882V988.792H430.586C431.874 988.792 432.672 989.576 432.672 990.906C432.672 992.208 431.846 993.006 430.544 993.006C429.2 993.006 428.472 992.166 428.36 991.088H427.086C427.24 993.048 428.64 994.07 430.516 994.07ZM436.222 994.532V995.708H443.67V994.532H436.222ZM446.098 984.312V994H447.372V986.762L450.606 994H451.502L454.722 986.776V994H455.996V984.312H454.638L451.054 992.32L447.47 984.312H446.098ZM464.708 994H466.052L462.538 984.298H461.068L457.54 994H458.884L459.668 991.83H463.924L464.708 994ZM463.56 990.794H460.032L461.796 985.866L463.56 990.794ZM474.142 994H475.486L471.972 984.298H470.502L466.974 994H468.318L469.102 991.83H473.358L474.142 994ZM472.994 990.794H469.466L471.23 985.866L472.994 990.794ZM482.245 987.112C482.245 988.204 481.615 988.988 480.173 988.988H478.297V985.292H480.173C481.629 985.292 482.245 986.006 482.245 987.112ZM480.173 984.242H477.023V994H478.297V990.01H479.837L482.161 994H483.687L481.237 989.912C482.875 989.548 483.561 988.358 483.561 987.112C483.561 985.516 482.469 984.242 480.173 984.242ZM484.939 984.242V985.278H487.613V994H488.887V985.278H491.547V984.242H484.939ZM498.365 985.278V984.228H493.115V994H498.365V992.95H494.389V989.59H497.945V988.54H494.389V985.278H498.365ZM507.965 984.228H506.691V991.984L501.567 984.228H500.293V994H501.567V986.23L506.691 994H507.965V984.228ZM510.529 994.532V995.708H517.977V994.532H510.529ZM525.948 991.256C525.948 992.32 525.192 992.95 523.932 992.95H521.678V989.506H523.89C525.136 989.506 525.948 990.178 525.948 991.256ZM525.696 986.874C525.696 987.868 525.01 988.456 523.82 988.456H521.678V985.292H523.792C525.038 985.292 525.696 985.908 525.696 986.874ZM527.222 991.382C527.222 990.178 526.354 989.156 525.29 988.974C526.228 988.666 526.998 987.952 526.998 986.72C526.998 985.362 525.962 984.242 523.904 984.242H520.404V994H524.044C526.06 994 527.222 992.852 527.222 991.382ZM528.99 984.242V994H530.264V984.242H528.99ZM533.709 984.242H532.435V994H537.125V992.964H533.709V984.242ZM539.752 984.242H538.478V994H543.168V992.964H539.752V984.242ZM549.771 985.278V984.228H544.521V994H549.771V992.95H545.795V989.59H549.351V988.54H545.795V985.278H549.771ZM551.699 984.312V994H552.973V986.762L556.207 994H557.103L560.323 986.776V994H561.597V984.312H560.239L556.655 992.32L553.071 984.312H551.699ZM568.182 994.098C570.94 994.098 573.082 992.04 573.082 989.114C573.082 986.188 570.94 984.13 568.182 984.13C565.438 984.13 563.282 986.188 563.282 989.114C563.282 992.04 565.438 994.098 568.182 994.098ZM568.182 992.992C566.124 992.992 564.584 991.494 564.584 989.114C564.584 986.72 566.124 985.236 568.182 985.236C570.24 985.236 571.78 986.72 571.78 989.114C571.78 991.494 570.24 992.992 568.182 992.992ZM582.436 984.228H581.162V991.984L576.038 984.228H574.764V994H576.038V986.23L581.162 994H582.436V984.228ZM584.005 984.242V985.278H586.679V994H587.953V985.278H590.613V984.242H584.005ZM592.574 994.532V995.708H600.022V994.532H592.574ZM605.725 996.604H607.055V996.478C605.109 994.476 604.115 991.718 604.115 988.876C604.115 986.02 605.109 983.08 607.265 981.05V980.924H605.935C603.947 982.758 602.883 985.712 602.883 988.876C602.883 992.026 603.947 994.854 605.725 996.604ZM608.331 989.114C608.331 992.04 610.473 994.084 613.203 994.084C615.317 994.084 616.997 993.034 617.725 991.158H616.199C615.667 992.32 614.631 992.978 613.203 992.978C611.159 992.978 609.633 991.494 609.633 989.114C609.633 986.72 611.159 985.236 613.203 985.236C614.631 985.236 615.667 985.894 616.199 987.07H617.725C616.997 985.18 615.317 984.116 613.203 984.116C610.473 984.116 608.331 986.188 608.331 989.114ZM620.545 996.604H619.215V996.478C621.161 994.476 622.155 991.718 622.155 988.876C622.155 986.02 621.161 983.08 619.005 981.05V980.924H620.335C622.323 982.758 623.387 985.712 623.387 988.876C623.387 992.026 622.323 994.854 620.545 996.604ZM625.698 993.09V994H632.432V992.936H627.56L629.59 990.976C631.508 989.114 632.166 987.994 632.166 986.734C632.166 985.012 630.99 983.85 629.002 983.85C627.196 983.85 625.782 984.97 625.74 987.196H626.972C627 985.852 627.7 984.942 628.988 984.942C630.276 984.942 630.878 985.684 630.878 986.734C630.878 987.77 630.276 988.666 628.624 990.262L625.698 993.09ZM634.108 988.834C634.108 991.774 634.836 994 637.636 994C640.422 994 641.15 991.774 641.15 988.834C641.15 985.936 640.422 983.724 637.636 983.724C634.836 983.724 634.108 985.936 634.108 988.834ZM639.89 988.834C639.89 991.018 639.624 992.838 637.636 992.838C635.634 992.838 635.368 991.018 635.368 988.834C635.368 986.734 635.634 984.886 637.636 984.886C639.624 984.886 639.89 986.734 639.89 988.834ZM643.907 985.04V994H645.195V983.878H642.563V985.04H643.907ZM648.392 985.04V994H649.68V983.878H647.048V985.04H648.392Z" fill="black"/>
</g>
<defs>
<clipPath id="clip0">
<rect width="1000" height="1000" fill="white"/>
</clipPath>
</defs>
</svg>
