<?xml version="1.0" encoding="UTF-8"?>
<svg width="299px" height="200px" viewBox="0 0 299 200" version="1.1" xmlns="http://www.w3.org/2000/svg" xmlns:xlink="http://www.w3.org/1999/xlink">
    <title>free-software</title>
    <g id="Page-1" stroke="none" stroke-width="1" fill="none" fill-rule="evenodd">
        <g id="free-software" fill="#57CBCC">
            <path d="M150,8.39977132e-06 C100,8.39977132e-06 64.2124321,31.7754703 53.1684871,75.0000084 L106.811519,75.0000084 C115.729888,59.5529059 132.163263,50.0265241 150,50.0000368 C177.614728,49.9993376 200.000007,72.3853047 200,100.000033 C200.000007,127.61476 177.614728,150.000728 150,150.000028 C132.157024,149.979769 115.715571,140.452492 106.794103,124.999995 L53.1684871,124.999995 C64.2124321,168.224621 100,200.000008 150,200.000008 C200,200.000008 249.260197,160.000065 249.260197,100.000033 C249.260197,40.0000084 200,8.39977132e-06 150,8.39977132e-06 Z" id="path1521"></path>
            <path d="M53.1267906,74.9999988 C51.0860899,82.9853662 49.9977855,91.3612792 49.9977855,100.000033 C49.9977855,108.638753 51.0861363,117.014634 53.1267906,124.999999 L53.1267906,124.999999 L2.06856435,124.999999 C0.718594519,116.87227 0,108.523269 0,100.000033 C0,91.476711 0.711614891,83.1277624 2.06856435,74.9999988 L2.06856435,74.9999988 Z M296.936372,75.0596629 C298.290083,83.1680291 299,91.4970523 299,100.000032 C299,108.502928 298.28312,116.832003 296.936372,124.94033 L246,124.94033 C248.035784,116.974027 249.121538,108.618136 249.121538,100.000032 C249.121538,91.381896 248.03583,83.0259728 246,75.0596629 L296.936372,75.0596629 Z" id="Combined-Shape" opacity="0.3"></path>
        </g>
    </g>
</svg>