<svg width="95" height="93" viewBox="0 0 95 93" fill="none" xmlns="http://www.w3.org/2000/svg">
<path d="M16.9279 65.9866L16.8318 66.982L16.8318 66.982L16.9279 65.9866ZM4.59982 64.0863C4.17358 64.4375 4.11275 65.0677 4.46394 65.4939L10.187 72.4399C10.5382 72.8661 11.1685 72.9269 11.5947 72.5757C12.0209 72.2246 12.0818 71.5943 11.7306 71.1681L6.64339 64.9939L12.8176 59.9067C13.2438 59.5555 13.3046 58.9253 12.9534 58.499C12.6022 58.0728 11.972 58.012 11.5458 58.3632L4.59982 64.0863ZM17.0239 64.9912L5.33179 63.8627L5.13964 65.8534L16.8318 66.982L17.0239 64.9912ZM57.2218 34.4101C53.8626 53.5359 36.3527 66.8569 17.0239 64.9912L16.8318 66.982C37.2001 68.948 55.6518 54.9105 59.1917 34.7561L57.2218 34.4101Z" fill="#F0F8FF"/>
<path d="M34.1179 10.2384L33.8402 12.1362L36.4167 12.5132L35.2715 20.3399L37.6402 20.6865L38.7855 12.8599L41.3621 13.2369L41.6398 11.3391L34.1179 10.2384ZM44.2994 17.9963C44.494 16.6665 45.2018 16.3739 46.3239 16.5381L46.9749 16.6334L47.3418 14.1261C46.3029 13.974 45.3768 14.4045 44.717 15.1427L44.9055 13.8544L42.5367 13.5078L41.4056 21.2375L43.7744 21.5841L44.2994 17.9963ZM53.7951 15.1553L51.3145 19.7303L50.235 14.6343L47.5892 14.2472L49.6411 22.1738L47.2923 25.8484L49.8412 26.2214L56.3578 15.5303L53.7951 15.1553ZM70.2856 21.1764L69.6714 25.3737L72.0263 25.7183L72.6871 21.2024C72.9912 19.1245 71.9367 17.7251 70.025 17.4454C68.903 17.2812 67.8421 17.7626 67.21 18.5049C66.8194 17.4998 65.9524 16.8494 64.7888 16.6791C63.7776 16.5312 62.9251 16.845 62.3768 17.4015L62.5187 16.4318L60.1499 16.0852L59.0188 23.8149L61.3876 24.1615L62.0018 19.9642C62.1498 18.953 62.8126 18.484 63.7131 18.6158C64.6135 18.7475 65.1142 19.3868 64.9662 20.398L64.352 24.5953L66.7069 24.9399L67.3211 20.7426C67.4691 19.7314 68.132 19.2624 69.0324 19.3942C69.9328 19.5259 70.4335 20.1652 70.2856 21.1764ZM77.9603 20.5167C78.7499 20.6322 79.3438 21.2144 79.2202 22.0594L76.2558 21.6256C76.52 20.787 77.1845 20.4032 77.9603 20.5167ZM81.1643 24.4379L78.6431 24.069C78.3884 24.4562 77.9657 24.7339 77.3008 24.6366C76.5389 24.5251 75.9845 23.9629 76.0493 22.9395L81.4102 23.724C81.4724 23.4926 81.5207 23.2591 81.5531 23.0375C81.8977 20.6825 80.5236 18.9534 78.2657 18.6229C75.9662 18.2864 74.1363 19.5751 73.7775 22.027C73.4187 24.4789 74.8303 26.2418 77.1021 26.5743C79.0276 26.856 80.5693 25.8931 81.1643 24.4379ZM84.2468 17.2202L83.5529 23.896L85.5615 24.19L86.8095 17.5952L84.2468 17.2202ZM84.0729 27.5943C84.904 27.7159 85.5551 27.2311 85.6585 26.5246C85.7659 25.7904 85.281 25.1394 84.4499 25.0177C83.6049 24.8941 82.9538 25.3789 82.8464 26.1131C82.743 26.8196 83.2279 27.4707 84.0729 27.5943Z" fill="#F0F8FF"/>
</svg>
