<svg width="662" height="617" viewBox="0 0 662 617" fill="none" xmlns="http://www.w3.org/2000/svg">
<g opacity="0.8" clip-path="url(#clip0)">
<path d="M331.003 94.1808C325.104 98.4569 244.206 155.845 140.456 175.653C126.779 403.931 330.874 522.117 331.003 522.049C331.133 522.117 535.229 403.932 521.552 175.647C417.795 155.845 331.003 94.1808 331.003 94.1808Z" fill="url(#paint0_linear)"/>
<path d="M589.007 138.866C588.593 131.934 583.316 126.144 576.172 124.775C449.652 100.628 341.631 24.7789 340.565 24.0217C334.85 19.9609 327.003 19.9936 321.323 24.1184C317.063 27.2079 215.537 100.029 85.8357 124.782C78.6894 126.146 73.4144 131.941 72.9957 138.875C62.603 312.341 147.961 437.127 221.402 511.257C248.962 539.084 274.824 559.654 291.668 572.006C301.331 579.088 309.136 584.291 313.977 587.408C323.018 593.239 325.62 594.908 330.609 594.994C330.817 595.001 331.021 595.001 331.219 595.001C336.141 595.001 339.111 593.108 346.942 588.104C351.184 585.389 358.053 580.87 366.612 574.696C381.522 563.964 404.576 546.099 429.764 521.92C477.085 476.499 514.759 425.922 541.722 371.605C577.977 298.59 593.887 220.286 589.007 138.866ZM448.857 455.72C400.274 513.808 350.065 549.193 331.003 561.552C311.946 549.193 261.736 513.815 213.134 455.692C137.109 364.77 100.556 262.721 104.395 152.201C213.902 128.621 302.483 74.0754 331.087 55.0078C360.077 74.0476 450.184 128.951 557.609 152.193C561.449 262.727 524.898 364.792 448.857 455.72Z" fill="url(#paint1_linear)"/>
</g>
<path opacity="0.5" d="M104 242L335 386L129 480" stroke="#3E8989" stroke-dasharray="4 2"/>
<path opacity="0.5" d="M526 491L295 347L461 193" stroke="#3E8989" stroke-dasharray="4 2"/>
<path opacity="0.1" d="M226.5 608C230.09 608 233 605.09 233 601.5C233 597.91 230.09 595 226.5 595C222.91 595 220 597.91 220 601.5C220 605.09 222.91 608 226.5 608Z" fill="#3E8989"/>
<path opacity="0.1" d="M646.5 240C650.09 240 653 237.09 653 233.5C653 229.91 650.09 227 646.5 227C642.91 227 640 229.91 640 233.5C640 237.09 642.91 240 646.5 240Z" fill="#3E8989"/>
<path opacity="0.1" d="M159 82C165.075 82 170 77.0751 170 71C170 64.9249 165.075 60 159 60C152.925 60 148 64.9249 148 71C148 77.0751 152.925 82 159 82Z" fill="#3E8989"/>
<path opacity="0.1" d="M575 402C589.359 402 601 390.359 601 376C601 361.641 589.359 350 575 350C560.641 350 549 361.641 549 376C549 390.359 560.641 402 575 402Z" fill="#3E8989"/>
<path opacity="0.1" d="M557.5 470C566.613 470 574 462.613 574 453.5C574 444.387 566.613 437 557.5 437C548.387 437 541 444.387 541 453.5C541 462.613 548.387 470 557.5 470Z" fill="#3E8989"/>
<path opacity="0.1" d="M94.5 409C103.613 409 111 401.613 111 392.5C111 383.387 103.613 376 94.5 376C85.3873 376 78 383.387 78 392.5C78 401.613 85.3873 409 94.5 409Z" fill="#3E8989"/>
<path d="M577.055 371.414C574.375 371.523 567.758 372.289 567.758 377.867C567.758 383.828 575.359 384.102 577.82 380.219C578.148 380.766 579.734 382.242 580.281 382.789L583.398 379.727C583.398 379.727 581.648 378.305 581.648 376.828V368.789C581.648 367.367 580.281 364.25 575.469 364.25C570.656 364.25 568.141 367.258 568.141 369.992L572.133 370.375C573.008 367.641 575.086 367.641 575.086 367.641C577.328 367.641 577.055 369.281 577.055 371.414ZM577.055 376.172C577.055 380.547 572.461 379.891 572.461 377.102C572.461 374.531 575.195 373.984 577.055 373.93V376.172ZM584.492 385.086C584.93 384.539 584.602 384.266 584.164 384.43C574.102 389.242 567.812 385.25 563.82 382.789C563.547 382.625 563.109 382.844 563.492 383.227C564.859 384.867 569.234 388.75 574.922 388.75C580.664 388.75 584.055 385.633 584.492 385.086ZM586.68 385.25C587.008 384.375 587.227 383.172 587.008 382.898C586.734 382.516 585.367 382.461 584.492 382.57C583.617 382.68 582.305 383.227 582.469 383.5C582.523 383.664 582.633 383.609 583.234 383.555C583.836 383.5 585.477 383.281 585.859 383.719C586.188 384.156 585.312 386.344 585.148 386.727C584.984 387.055 585.203 387.164 585.477 386.945C585.805 386.672 586.297 386.07 586.68 385.25Z" fill="#42727C"/>
<path opacity="0.2" d="M36 245C51.464 245 64 232.464 64 217C64 201.536 51.464 189 36 189C20.536 189 8 201.536 8 217C8 232.464 20.536 245 36 245Z" fill="#3E8989"/>
<path d="M48.6875 210.5C49.9375 209.562 51.0625 208.438 51.9375 207.125C50.8125 207.625 49.5 208 48.1875 208.125C49.5625 207.312 50.5625 206.062 51.0625 204.5C49.8125 205.25 48.375 205.812 46.9375 206.125C45.6875 204.812 44 204.062 42.125 204.062C38.5 204.062 35.5625 207 35.5625 210.625C35.5625 211.125 35.625 211.625 35.75 212.125C30.3125 211.812 25.4375 209.188 22.1875 205.25C21.625 206.188 21.3125 207.312 21.3125 208.562C21.3125 210.812 22.4375 212.812 24.25 214C23.1875 213.938 22.125 213.688 21.25 213.188V213.25C21.25 216.438 23.5 219.062 26.5 219.688C26 219.812 25.375 219.938 24.8125 219.938C24.375 219.938 24 219.875 23.5625 219.812C24.375 222.438 26.8125 224.312 29.6875 224.375C27.4375 226.125 24.625 227.188 21.5625 227.188C21 227.188 20.5 227.125 20 227.062C22.875 228.938 26.3125 230 30.0625 230C42.125 230 48.6875 220.062 48.6875 211.375C48.6875 211.062 48.6875 210.812 48.6875 210.5Z" fill="#42727C"/>
<path d="M565.719 323.422C567.221 323.422 568.438 322.205 568.438 320.703C568.438 319.201 567.221 317.984 565.719 317.984C564.217 317.984 563 319.201 563 320.703C563 322.205 564.217 323.422 565.719 323.422Z" fill="#3E8989"/>
<path opacity="0.12" d="M585.5 212C599.031 212 610 201.479 610 188.5C610 175.521 599.031 165 585.5 165C571.969 165 561 175.521 561 188.5C561 201.479 571.969 212 585.5 212Z" fill="#3E8989"/>
<path d="M591.391 188.211C591.391 186.188 592.32 184.711 594.125 183.562C593.086 182.086 591.555 181.32 589.531 181.156C587.562 180.992 585.43 182.25 584.664 182.25C583.844 182.25 581.984 181.211 580.508 181.211C577.445 181.266 574.219 183.617 574.219 188.484C574.219 189.906 574.438 191.383 574.984 192.914C575.695 194.938 578.211 199.859 580.836 199.75C582.203 199.75 583.188 198.766 584.992 198.766C586.742 198.766 587.617 199.75 589.148 199.75C591.828 199.75 594.125 195.266 594.781 193.242C591.227 191.547 591.391 188.32 591.391 188.211ZM588.328 179.242C589.805 177.492 589.641 175.852 589.641 175.25C588.328 175.359 586.797 176.18 585.922 177.164C584.938 178.258 584.391 179.625 584.5 181.102C585.922 181.211 587.234 180.5 588.328 179.242Z" fill="#42727C"/>
<path opacity="0.1" d="M140.312 585.624C150.425 585.624 158.624 577.425 158.624 567.312C158.624 557.199 150.425 549 140.312 549C130.199 549 122 557.199 122 567.312C122 577.425 130.199 585.624 140.312 585.624Z" fill="#3E8989"/>
<path d="M150.969 567.008C150.969 566.32 150.883 565.805 150.797 565.246H140.656V568.898H146.672C146.457 570.488 144.867 573.496 140.656 573.496C137.004 573.496 134.039 570.488 134.039 566.75C134.039 560.777 141.086 558.027 144.867 561.68L147.789 558.887C145.941 557.168 143.492 556.094 140.656 556.094C134.727 556.094 130 560.863 130 566.75C130 572.68 134.727 577.406 140.656 577.406C146.801 577.406 150.969 573.109 150.969 567.008Z" fill="#42727C"/>
<path opacity="0.1" d="M502.5 561C513.27 561 522 552.27 522 541.5C522 530.73 513.27 522 502.5 522C491.73 522 483 530.73 483 541.5C483 552.27 491.73 561 502.5 561Z" fill="#3E8989"/>
<path d="M513.656 540.75C513.656 534.863 508.887 530.094 503 530.094C497.113 530.094 492.344 534.863 492.344 540.75C492.344 546.078 496.211 550.504 501.324 551.277V543.844H498.617V540.75H501.324V538.43C501.324 535.766 502.914 534.262 505.32 534.262C506.523 534.262 507.727 534.477 507.727 534.477V537.098H506.395C505.062 537.098 504.633 537.914 504.633 538.773V540.75H507.598L507.125 543.844H504.633V551.277C509.746 550.504 513.656 546.078 513.656 540.75Z" fill="#42727C"/>
<defs>
<linearGradient id="paint0_linear" x1="522" y1="244.067" x2="151" y2="244.067" gradientUnits="userSpaceOnUse">
<stop stop-color="#143D4E"/>
<stop offset="1" stop-color="#143D4F"/>
</linearGradient>
<linearGradient id="paint1_linear" x1="590" y1="183.4" x2="72.0001" y2="182.864" gradientUnits="userSpaceOnUse">
<stop stop-color="#143D4E"/>
<stop offset="1" stop-color="#143D4F"/>
</linearGradient>
<clipPath id="clip0">
<rect width="602" height="574" fill="white" transform="translate(30 21)"/>
</clipPath>
</defs>
</svg>
